<svg xmlns="http://www.w3.org/2000/svg" viewBox="0 0 800 420"><rect width="800" height="420" rx="28" fill="#f2fbfa"/><text x="400" y="48" text-anchor="middle" font-family="Arial" font-size="28" font-weight="700" fill="#073642">DC Analysis Using KVL</text><g stroke="#073642" stroke-width="7" fill="none"><path d="M145 100h510v240H145zM145 165v110M127 190h36M117 235h56M260 100l15-18 28 36 28-36 28 36 28-36 15 18M455 100l15-18 28 36 28-36 28 36 28-36 15 18"/></g><g font-family="Arial" font-size="23" font-weight="700" fill="#073642"><text x="65" y="225">10 V</text><text x="315" y="75">2 Ω</text><text x="510" y="75">3 Ω</text><text x="400" y="220" text-anchor="middle" fill="#078987">10 − 2I − 3I = 0</text><text x="400" y="260" text-anchor="middle" fill="#078987">I = 2 A</text></g><path d="M280 310h220" stroke="#078987" stroke-width="6"/><path d="m500 310-28-16v32z" fill="#078987"/></svg>
